
<svg width="21px" height="21px" viewBox="0 0 21 21" version="1.1" xmlns="http://www.w3.org/2000/svg" xmlns:xlink="http://www.w3.org/1999/xlink">
    <g id="2.-App-Home" stroke="none" stroke-width="1" fill="none" fill-rule="evenodd">
        <g id="_app" transform="translate(-1028.000000, -182.000000)" fill="#AAAAAA">
            <g id="btn_getnewsuggestion" transform="translate(1012.000000, 170.000000)">
                <g id="Group-8" transform="translate(16.000000, 12.000000)">
                    <g id="info">
                        <path d="M10.5,1 C5.262,1 1,5.262 1,10.5 C1,15.738 5.262,20 10.5,20 C15.738,20 20,15.738 20,10.5 C20,5.262 15.738,1 10.5,1 M10.5,21 C4.71,21 0,16.29 0,10.5 C0,4.71 4.71,0 10.5,0 C16.29,0 21,4.71 21,10.5 C21,16.29 16.29,21 10.5,21" id="Fill-1"></path>
                        <path d="M10.5,15 C10.224,15 10,14.776 10,14.5 L10,10.5 C10,10.224 10.224,10 10.5,10 C10.776,10 11,10.224 11,10.5 L11,14.5 C11,14.776 10.776,15 10.5,15" id="Fill-3"></path>
                        <path d="M10.5,7 C10.43,7 10.37,6.99 10.31,6.96 C10.25,6.939 10.19,6.899 10.15,6.85 C10.1,6.81 10.06,6.75 10.04,6.689 C10.01,6.63 10,6.569 10,6.5 C10,6.37 10.05,6.24 10.15,6.149 C10.19,6.1 10.25,6.06 10.31,6.04 C10.43,5.99 10.57,5.99 10.69,6.04 C10.75,6.06 10.81,6.1 10.85,6.149 C10.95,6.24 11,6.37 11,6.5 C11,6.569 10.99,6.63 10.96,6.689 C10.94,6.75 10.9,6.81 10.85,6.85 C10.76,6.95 10.63,7 10.5,7" id="Fill-5"></path>
                    </g>
                </g>
            </g>
        </g>
    </g>
</svg>
